<svg width="27" height="16" viewBox="0 0 27 16" fill="none" xmlns="http://www.w3.org/2000/svg">
<path fill-rule="evenodd" clip-rule="evenodd" d="M18.9884 2.2221C18.7389 1.97578 18.7389 1.57788 18.9884 1.33157C19.2355 1.08446 19.6334 1.08446 19.8797 1.33157L26.1836 7.63157C26.3005 7.75157 26.3684 7.91183 26.3684 8.07841C26.3684 8.08157 26.3652 8.08788 26.3652 8.09104C26.3652 8.09736 26.3684 8.10052 26.3684 8.10683C26.3684 8.31604 26.2602 8.4921 26.1 8.60578L19.8552 14.8537C19.6081 15.1008 19.2079 15.1008 18.9608 14.8537C18.7144 14.6074 18.7144 14.2095 18.9608 13.9631L24.1847 8.73525L1.73759 8.73525C1.38865 8.73525 1.10522 8.45499 1.10522 8.10683C1.10522 7.75473 1.38865 7.47446 1.73759 7.47446L24.2376 7.47446L18.9884 2.2221Z" fill="#4E72CA"/>
</svg>
