<svg width="35" height="20" viewBox="0 0 35 20" fill="none" xmlns="http://www.w3.org/2000/svg">
<path fill-rule="evenodd" clip-rule="evenodd" d="M24.7114 2.64803C24.3851 2.33603 24.3851 1.83203 24.7114 1.52003C25.0345 1.20703 25.5548 1.20703 25.8769 1.52003L34.1205 9.50003C34.2733 9.65203 34.3621 9.85503 34.3621 10.066C34.3621 10.07 34.358 10.078 34.358 10.082C34.358 10.09 34.3621 10.094 34.3621 10.102C34.3621 10.367 34.2207 10.59 34.0111 10.734L25.8449 18.648C25.5218 18.961 24.9984 18.961 24.6752 18.648C24.3531 18.336 24.3531 17.832 24.6752 17.52L31.5065 10.898L2.15263 10.898C1.69631 10.898 1.32568 10.543 1.32568 10.102C1.32568 9.65603 1.69631 9.30103 2.15263 9.30103L31.5757 9.30103L24.7114 2.64803Z" fill="white"/>
</svg>
