<svg width="34" height="18" viewBox="0 0 34 18" fill="none" xmlns="http://www.w3.org/2000/svg">
<path fill-rule="evenodd" clip-rule="evenodd" d="M23.7114 1.64803C23.3851 1.33603 23.3851 0.832028 23.7114 0.520028C24.0345 0.207028 24.5548 0.207028 24.8769 0.520028L33.1205 8.50003C33.2733 8.65203 33.3621 8.85503 33.3621 9.06603C33.3621 9.07003 33.358 9.07803 33.358 9.08203C33.358 9.09003 33.3621 9.09403 33.3621 9.10203C33.3621 9.36703 33.2207 9.59003 33.0111 9.73403L24.8449 17.648C24.5218 17.961 23.9984 17.961 23.6752 17.648C23.3531 17.336 23.3531 16.832 23.6752 16.52L30.5065 9.89803L1.15263 9.89803C0.696311 9.89803 0.325684 9.54303 0.325684 9.10203C0.325684 8.65603 0.696311 8.30103 1.15263 8.30103L30.5757 8.30103L23.7114 1.64803Z" fill="white"/>
</svg>
