<svg width="177" height="55" viewBox="0 0 177 55" fill="none" xmlns="http://www.w3.org/2000/svg">
<rect width="177" height="55" rx="27.5" fill="#212121"/>
<path fill-rule="evenodd" clip-rule="evenodd" d="M65.3112 21.2667L65.2402 21.0653C65.1928 20.931 65.1385 20.7763 65.0772 20.6012C65.0159 20.4261 64.9615 20.2714 64.9142 20.1372L64.8432 19.9357H62.9906L62.5226 21.2667H61.9126L63.6296 16.6164H64.2041L65.9212 21.2667H65.3112ZM63.8911 17.3673L63.8168 17.5768C63.7673 17.7164 63.7066 17.8894 63.6345 18.0956L63.4182 18.7144C63.3462 18.9206 63.2854 19.0936 63.2359 19.2332L63.1616 19.4427H64.6721L63.9427 17.3673H63.8911ZM69.1481 17.7927L69.0174 18.1439C68.9303 18.3781 68.8232 18.6676 68.6963 19.0125C68.5693 19.3573 68.4418 19.7021 68.3138 20.0469C68.1858 20.3917 68.0782 20.6812 67.9911 20.9154L67.8603 21.2667H67.2923L66.0045 17.7927H66.5984L67.5505 20.6544H67.6021L68.5543 17.7927H69.1481ZM70.9259 20.8413C71.2121 20.8413 71.4493 20.7581 71.6376 20.5916C71.8259 20.425 71.92 20.2183 71.92 19.9712V19.6521L70.984 19.7134C70.4762 19.7478 70.2223 19.9368 70.2223 20.2806C70.2223 20.4567 70.289 20.5942 70.4224 20.6931C70.5558 20.7919 70.7237 20.8413 70.9259 20.8413ZM70.8226 21.3279C70.4848 21.3279 70.2046 21.235 69.9819 21.0492C69.7592 20.8633 69.6478 20.6114 69.6478 20.2935C69.6478 19.6575 70.0706 19.3148 70.9162 19.2654L71.92 19.2042V18.8884C71.92 18.4458 71.6575 18.2245 71.1325 18.2245C70.9238 18.2245 70.7506 18.2621 70.6129 18.3373C70.4751 18.4125 70.3869 18.5188 70.3482 18.6563H69.7866C69.8232 18.377 69.9673 18.1531 70.2191 17.9844C70.4708 17.8158 70.7818 17.7314 71.1518 17.7314C71.5757 17.7314 71.9022 17.834 72.1314 18.0392C72.3606 18.2444 72.4751 18.5274 72.4751 18.8884V21.2667H71.9458V20.7543H71.8942C71.7823 20.9391 71.6338 21.0809 71.4488 21.1797C71.2637 21.2785 71.055 21.3279 70.8226 21.3279ZM73.6074 21.2667V17.7927H74.1626V21.2667H73.6074ZM73.885 17.0869C73.7796 17.0869 73.6886 17.0488 73.6123 16.9725C73.5359 16.8962 73.4977 16.8055 73.4977 16.7002C73.4977 16.5928 73.5359 16.5015 73.6123 16.4263C73.6886 16.3511 73.7796 16.3135 73.885 16.3135C73.9926 16.3135 74.084 16.3511 74.1593 16.4263C74.2346 16.5015 74.2723 16.5928 74.2723 16.7002C74.2723 16.8055 74.2346 16.8962 74.1593 16.9725C74.084 17.0488 73.9926 17.0869 73.885 17.0869ZM75.3465 21.2667V16.4134H75.9016V21.2667H75.3465ZM78.1442 20.8413C78.4304 20.8413 78.6676 20.7581 78.8558 20.5916C79.0441 20.425 79.1383 20.2183 79.1383 19.9712V19.6521L78.2023 19.7134C77.6945 19.7478 77.4406 19.9368 77.4406 20.2806C77.4406 20.4567 77.5073 20.5942 77.6407 20.6931C77.7741 20.7919 77.9419 20.8413 78.1442 20.8413ZM78.0409 21.3279C77.7031 21.3279 77.4228 21.235 77.2001 21.0492C76.9774 20.8633 76.8661 20.6114 76.8661 20.2935C76.8661 19.6575 77.2889 19.3148 78.1345 19.2654L79.1383 19.2042V18.8884C79.1383 18.4458 78.8757 18.2245 78.3507 18.2245C78.142 18.2245 77.9688 18.2621 77.8311 18.3373C77.6934 18.4125 77.6052 18.5188 77.5665 18.6563H77.0049C77.0414 18.377 77.1856 18.1531 77.4374 17.9844C77.6891 17.8158 78 17.7314 78.3701 17.7314C78.794 17.7314 79.1205 17.834 79.3497 18.0392C79.5788 18.2444 79.6934 18.5274 79.6934 18.8884V21.2667H79.1641V20.7543H79.1124C79.0005 20.9391 78.8521 21.0809 78.667 21.1797C78.482 21.2785 78.2733 21.3279 78.0409 21.3279ZM82.5427 21.3279C82.3017 21.3279 82.0828 21.2737 81.8859 21.1652C81.689 21.0567 81.5357 20.9058 81.426 20.7124H81.3744V21.2667H80.845V16.4134H81.4002V18.3405H81.4518C81.5465 18.1536 81.6923 18.0054 81.8891 17.8958C82.086 17.7862 82.3039 17.7314 82.5427 17.7314C82.986 17.7314 83.3399 17.8947 83.6046 18.2213C83.8692 18.5479 84.0016 18.984 84.0016 19.5297C84.0016 20.0732 83.8687 20.5088 83.603 20.8365C83.3372 21.1641 82.9838 21.3279 82.5427 21.3279ZM82.4136 18.231C82.0973 18.231 81.8472 18.347 81.6632 18.579C81.4792 18.811 81.3873 19.1279 81.3873 19.5297C81.3873 19.9314 81.4792 20.2483 81.6632 20.4804C81.8472 20.7124 82.0973 20.8284 82.4136 20.8284C82.7321 20.8284 82.9806 20.7135 83.1592 20.4836C83.3378 20.2537 83.4271 19.9357 83.4271 19.5297C83.4271 19.1236 83.3378 18.8057 83.1592 18.5758C82.9806 18.3459 82.7321 18.231 82.4136 18.231ZM84.9983 21.2667V16.4134H85.5534V21.2667H84.9983ZM88.1123 18.2213C87.8347 18.2213 87.6066 18.3147 87.428 18.5017C87.2495 18.6886 87.1494 18.9356 87.1279 19.2429H89.045C89.0386 18.9356 88.9504 18.6886 88.7804 18.5017C88.6104 18.3147 88.3877 18.2213 88.1123 18.2213ZM89.0289 20.3676H89.584C89.5001 20.6662 89.3301 20.9009 89.0741 21.0717C88.818 21.2425 88.4996 21.3279 88.1187 21.3279C87.6368 21.3279 87.2548 21.1663 86.973 20.8429C86.6911 20.5196 86.5502 20.0829 86.5502 19.5329C86.5502 18.9872 86.6922 18.5505 86.9762 18.2229C87.2602 17.8953 87.6411 17.7314 88.1187 17.7314C88.5878 17.7314 88.9568 17.8877 89.2258 18.2003C89.4947 18.5129 89.6292 18.9389 89.6292 19.4781V19.6908H87.1279V19.7166C87.1429 20.0604 87.2403 20.3332 87.42 20.5352C87.5996 20.7371 87.8369 20.8381 88.1316 20.8381C88.3554 20.8381 88.5426 20.7978 88.6932 20.7172C88.8438 20.6367 88.9557 20.5201 89.0289 20.3676ZM93.982 21.3279C93.4871 21.3279 93.096 21.1673 92.8088 20.8461C92.5215 20.5249 92.3779 20.0861 92.3779 19.5297C92.3779 18.9711 92.5215 18.5317 92.8088 18.2116C93.096 17.8915 93.4871 17.7314 93.982 17.7314C94.4769 17.7314 94.868 17.8915 95.1552 18.2116C95.4425 18.5317 95.5861 18.9711 95.5861 19.5297C95.5861 20.0861 95.4425 20.5249 95.1552 20.8461C94.868 21.1673 94.4769 21.3279 93.982 21.3279ZM93.982 20.8284C94.3112 20.8284 94.5651 20.7146 94.7437 20.4868C94.9223 20.2591 95.0116 19.94 95.0116 19.5297C95.0116 19.1172 94.9223 18.7976 94.7437 18.5709C94.5651 18.3443 94.3112 18.231 93.982 18.231C93.6528 18.231 93.3989 18.3443 93.2203 18.5709C93.0417 18.7976 92.9524 19.1172 92.9524 19.5297C92.9524 19.94 93.0417 20.2591 93.2203 20.4868C93.3989 20.7146 93.6528 20.8284 93.982 20.8284ZM96.5505 21.2667V17.7927H97.0798V18.3405H97.1315C97.2197 18.1493 97.3493 18 97.5204 17.8926C97.6915 17.7852 97.9104 17.7314 98.1772 17.7314C98.5688 17.7314 98.8695 17.8426 99.0793 18.065C99.2891 18.2874 99.394 18.6048 99.394 19.0173V21.2667H98.8388V19.1526C98.8388 18.839 98.7716 18.6069 98.6371 18.4565C98.5026 18.3062 98.2966 18.231 98.0191 18.231C97.7415 18.231 97.5199 18.318 97.3542 18.492C97.1885 18.666 97.1057 18.9056 97.1057 19.2106V21.2667H96.5505ZM102.691 16.8936H103.247V17.7927H104.021V18.2567H103.247V20.2226C103.247 20.4267 103.287 20.5749 103.369 20.6673C103.451 20.7597 103.582 20.8059 103.763 20.8059C103.812 20.8059 103.855 20.8048 103.89 20.8026C103.926 20.8005 103.969 20.7973 104.021 20.793V21.2603C103.967 21.271 103.914 21.2791 103.86 21.2844C103.806 21.2898 103.751 21.2925 103.695 21.2925C103.338 21.2925 103.081 21.2205 102.925 21.0766C102.769 20.9326 102.691 20.6952 102.691 20.3644V18.2567H102.13V17.7927H102.691V16.8936ZM104.986 21.2667V16.4134H105.541V18.3405H105.592C105.681 18.1493 105.814 18 105.994 17.8926C106.174 17.7852 106.397 17.7314 106.664 17.7314C107.032 17.7314 107.324 17.8437 107.54 18.0682C107.756 18.2927 107.865 18.6091 107.865 19.0173V21.2667H107.309V19.1526C107.309 18.8454 107.241 18.615 107.104 18.4614C106.968 18.3078 106.768 18.231 106.506 18.231C106.194 18.231 105.955 18.3207 105.789 18.5C105.624 18.6794 105.541 18.9163 105.541 19.2106V21.2667H104.986ZM110.359 18.2213C110.081 18.2213 109.853 18.3147 109.675 18.5017C109.496 18.6886 109.396 18.9356 109.374 19.2429H111.292C111.285 18.9356 111.197 18.6886 111.027 18.5017C110.857 18.3147 110.634 18.2213 110.359 18.2213ZM111.275 20.3676C111.275 20.3676 111.303 20.3676 111.359 20.3676C111.415 20.3676 111.48 20.3676 111.553 20.3676C111.626 20.3676 111.691 20.3676 111.747 20.3676C111.803 20.3676 111.831 20.3676 111.831 20.3676C111.747 20.6662 111.577 20.9009 111.321 21.0717C111.065 21.2425 110.746 21.3279 110.365 21.3279C109.883 21.3279 109.501 21.1663 109.22 20.8429C108.938 20.5196 108.797 20.0829 108.797 19.5329C108.797 18.9872 108.939 18.5505 109.223 18.2229C109.507 17.8953 109.888 17.7314 110.365 17.7314C110.834 17.7314 111.203 17.8877 111.472 18.2003C111.741 18.5129 111.876 18.9389 111.876 19.4781V19.6908H109.374V19.7166C109.389 20.0604 109.487 20.3332 109.667 20.5352C109.846 20.7371 110.083 20.8381 110.378 20.8381C110.602 20.8381 110.789 20.7978 110.94 20.7172C111.09 20.6367 111.202 20.5201 111.275 20.3676Z" fill="white"/>
<path fill-rule="evenodd" clip-rule="evenodd" d="M69.3158 37.4L69.1601 36.9583C69.0563 36.6638 68.9371 36.3246 68.8027 35.9406C68.6682 35.5566 68.549 35.2174 68.4452 34.9229L68.2895 34.4812H64.2268L63.2005 37.4H61.8628L65.6282 27.202H66.8881L70.6535 37.4H69.3158ZM66.2369 28.7497L66.0706 29.2197C65.9597 29.533 65.8241 29.9205 65.6636 30.3822C65.5032 30.8439 65.3416 31.3057 65.1788 31.7674C65.016 32.2291 64.8792 32.6166 64.7683 32.93L64.6019 33.3999H67.9144L66.2794 28.7497H66.2369ZM75.897 29.9228C76.836 29.9228 77.5957 30.268 78.1761 30.9582C78.7565 31.6484 79.0467 32.5707 79.0467 33.725C79.0467 34.8746 78.7588 35.7957 78.1832 36.4883C77.6075 37.1809 76.8549 37.5272 75.9253 37.5272C75.3968 37.5272 74.9297 37.407 74.5239 37.1668C74.1181 36.9265 73.8043 36.6061 73.5825 36.2056H73.5542V39.8523H72.3227V30.0501H73.4905V31.2939H73.5188C73.7453 30.8793 74.065 30.5471 74.4779 30.2974C74.8908 30.0477 75.3638 29.9228 75.897 29.9228ZM75.6564 36.4459C76.3122 36.4459 76.8313 36.2009 77.2135 35.7109C77.5957 35.2209 77.7868 34.559 77.7868 33.725C77.7868 32.8958 77.5957 32.235 77.2135 31.7427C76.8313 31.2503 76.3122 31.0041 75.6564 31.0041C75.0288 31.0041 74.5204 31.2538 74.1311 31.7533C73.7418 32.2527 73.5471 32.9099 73.5471 33.725C73.5471 34.5448 73.7418 35.2032 74.1311 35.7003C74.5204 36.1974 75.0288 36.4459 75.6564 36.4459ZM84.552 29.9228C85.491 29.9228 86.2507 30.268 86.8311 30.9582C87.4115 31.6484 87.7017 32.5707 87.7017 33.725C87.7017 34.8746 87.4139 35.7957 86.8382 36.4883C86.2625 37.1809 85.5099 37.5272 84.5803 37.5272C84.0518 37.5272 83.5847 37.407 83.1789 37.1668C82.7731 36.9265 82.4593 36.6061 82.2376 36.2056H82.2092V39.8523H80.9777V30.0501H82.1455V31.2939H82.1739C82.4003 30.8793 82.72 30.5471 83.1329 30.2974C83.5458 30.0477 84.0188 29.9228 84.552 29.9228ZM84.3114 36.4459C84.9673 36.4459 85.4863 36.2009 85.8685 35.7109C86.2507 35.2209 86.4418 34.559 86.4418 33.725C86.4418 32.8958 86.2507 32.235 85.8685 31.7427C85.4863 31.2503 84.9673 31.0041 84.3114 31.0041C83.6838 31.0041 83.1754 31.2538 82.7861 31.7533C82.3968 32.2527 82.2022 32.9099 82.2022 33.725C82.2022 34.5448 82.3968 35.2032 82.7861 35.7003C83.1754 36.1974 83.6838 36.4459 84.3114 36.4459ZM89.6964 37.4V27.202H90.928V37.4H89.6964ZM96.2351 30.99C95.6595 30.99 95.1852 31.1879 94.8125 31.5836C94.4397 31.9794 94.2345 32.4835 94.1967 33.096H98.1957C98.1816 32.4788 97.9963 31.9735 97.6401 31.5801C97.2838 31.1867 96.8155 30.99 96.2351 30.99ZM98.1674 35.2939H99.3777C99.2739 35.9347 98.9377 36.4671 98.3691 36.8911C97.8005 37.3152 97.1152 37.5272 96.313 37.5272C95.2607 37.5272 94.4326 37.1868 93.8286 36.506C93.2247 35.8252 92.9227 34.9076 92.9227 33.7533C92.9227 32.6131 93.2247 31.6897 93.8286 30.9829C94.4326 30.2762 95.2419 29.9228 96.2564 29.9228C97.252 29.9228 98.0365 30.2562 98.6098 30.9229C99.1831 31.5895 99.4697 32.4788 99.4697 33.5907V34.0572H94.1896V34.1278C94.1896 34.8299 94.3831 35.3941 94.77 35.8204C95.1569 36.2468 95.6807 36.46 96.3413 36.46C96.8084 36.46 97.2036 36.3517 97.5268 36.1349C97.8501 35.9182 98.0636 35.6379 98.1674 35.2939ZM104.769 34.5943H106.05C106.111 35.1455 106.382 35.5884 106.864 35.9229C107.345 36.2574 107.949 36.4247 108.676 36.4247C109.364 36.4247 109.934 36.261 110.385 35.9335C110.836 35.6061 111.061 35.1926 111.061 34.6932C111.061 34.2598 110.904 33.9041 110.59 33.6261C110.276 33.3481 109.775 33.1219 109.086 32.9476L107.777 32.6084C105.965 32.1467 105.059 31.2491 105.059 29.9158C105.059 29.0677 105.395 28.3751 106.067 27.838C106.74 27.3009 107.607 27.0323 108.668 27.0323C109.683 27.0323 110.523 27.3033 111.188 27.8451C111.854 28.3869 112.2 29.0866 112.229 29.944H110.955C110.898 29.3975 110.662 28.9664 110.247 28.6507C109.832 28.3351 109.291 28.1772 108.626 28.1772C107.965 28.1772 107.426 28.3327 107.009 28.6437C106.591 28.9546 106.382 29.3598 106.382 29.8592C106.382 30.2456 106.535 30.5624 106.839 30.8098C107.143 31.0571 107.642 31.2703 108.336 31.4494L109.405 31.7321C110.462 31.9959 111.221 32.3469 111.684 32.7851C112.146 33.2232 112.377 33.8075 112.377 34.5377C112.377 35.4706 112.034 36.2091 111.347 36.7533C110.661 37.2975 109.73 37.5696 108.555 37.5696C107.475 37.5696 106.589 37.2987 105.898 36.7569C105.206 36.215 104.83 35.4942 104.769 34.5943ZM114.768 28.2762H116V30.0501H117.43V31.0607H116V35.4282C116 35.7627 116.073 36.0089 116.219 36.1667C116.366 36.3246 116.597 36.4035 116.913 36.4035C116.984 36.4035 117.076 36.3988 117.189 36.3894C117.302 36.3799 117.38 36.3729 117.423 36.3682V37.4C117.347 37.4188 117.235 37.433 117.086 37.4424C116.938 37.4518 116.79 37.4565 116.644 37.4565C115.969 37.4565 115.488 37.3057 115.2 37.0042C114.912 36.7027 114.768 36.1985 114.768 35.4918V31.0607H113.671V30.0501H114.768V28.2762ZM122.263 37.5272C121.243 37.5272 120.42 37.1856 119.792 36.5024C119.165 35.8193 118.851 34.8935 118.851 33.725C118.851 32.5518 119.165 31.6249 119.792 30.9441C120.42 30.2632 121.243 29.9228 122.263 29.9228C123.277 29.9228 124.098 30.2632 124.726 30.9441C125.353 31.6249 125.667 32.5518 125.667 33.725C125.667 34.8935 125.353 35.8193 124.726 36.5024C124.098 37.1856 123.277 37.5272 122.263 37.5272ZM122.263 36.4459C122.914 36.4459 123.435 36.2091 123.827 35.7356C124.218 35.2621 124.414 34.5919 124.414 33.725C124.414 32.8581 124.218 32.1879 123.827 31.7144C123.435 31.2409 122.914 31.0041 122.263 31.0041C121.611 31.0041 121.089 31.2409 120.695 31.7144C120.301 32.1879 120.104 32.8581 120.104 33.725C120.104 34.5919 120.301 35.2621 120.695 35.7356C121.089 36.2091 121.611 36.4459 122.263 36.4459ZM127.598 37.4V30.0501H128.759V31.2515H128.787C129.051 30.3657 129.646 29.9228 130.571 29.9228C130.679 29.9228 130.777 29.9287 130.865 29.9405C130.952 29.9523 131.019 29.9629 131.066 29.9723V31.1667C131.019 31.1478 130.935 31.1313 130.815 31.1172C130.695 31.1031 130.559 31.096 130.408 31.096C129.931 31.096 129.549 31.2538 129.261 31.5695C128.974 31.8852 128.83 32.3021 128.83 32.8204V37.4H127.598ZM135.354 30.99C134.779 30.99 134.304 31.1879 133.932 31.5836C133.559 31.9794 133.354 32.4835 133.316 33.096H137.315C137.301 32.4788 137.115 31.9735 136.759 31.5801C136.403 31.1867 135.935 30.99 135.354 30.99ZM137.287 35.2939C137.287 35.2939 137.348 35.2939 137.471 35.2939C137.593 35.2939 137.734 35.2939 137.892 35.2939C138.05 35.2939 138.19 35.2939 138.313 35.2939C138.435 35.2939 138.497 35.2939 138.497 35.2939C138.393 35.9347 138.057 36.4671 137.488 36.8911C136.92 37.3152 136.234 37.5272 135.432 37.5272C134.38 37.5272 133.552 37.1868 132.948 36.506C132.344 35.8252 132.042 34.9076 132.042 33.7533C132.042 32.6131 132.344 31.6897 132.948 30.9829C133.552 30.2762 134.361 29.9228 135.375 29.9228C136.371 29.9228 137.156 30.2562 137.729 30.9229C138.302 31.5895 138.589 32.4788 138.589 33.5907V34.0572H133.309V34.1278C133.309 34.8299 133.502 35.3941 133.889 35.8204C134.276 36.2468 134.8 36.46 135.46 36.46C135.928 36.46 136.323 36.3517 136.646 36.1349C136.969 35.9182 137.183 35.6379 137.287 35.2939Z" fill="white"/>
<ellipse opacity="0.702542" cx="32.6433" cy="27.5" rx="21.0369" ry="20.9868" stroke="white"/>
<path fill-rule="evenodd" clip-rule="evenodd" d="M41.3481 30.8544C41.0096 31.9779 40.4759 33.1014 39.7468 34.2249C38.6272 35.9866 37.5119 36.8674 36.401 36.8674C35.9757 36.8674 35.3681 36.7236 34.5783 36.436C33.8319 36.1484 33.1766 36.0045 32.6125 36.0045C32.0831 36.0045 31.4668 36.1528 30.7638 36.4495C30.0608 36.755 29.488 36.9078 29.0453 36.9078C27.7261 36.9078 26.4199 35.7439 25.1267 33.416C23.8508 31.0701 23.2129 28.8096 23.2129 26.6345C23.2129 24.5852 23.7033 22.9044 24.684 21.5922C25.6561 20.2979 26.8885 19.6508 28.3814 19.6508C29.0063 19.6508 29.7744 19.7856 30.6857 20.0552C31.5883 20.3249 32.1872 20.4597 32.4823 20.4597C32.8729 20.4597 33.4934 20.3069 34.344 20.0013C35.2293 19.6957 35.98 19.5429 36.5963 19.5429C37.6291 19.5429 38.5534 19.835 39.3693 20.4192C39.8206 20.7428 40.2719 21.1922 40.7232 21.7674C40.0376 22.3696 39.5429 22.8999 39.2391 23.3583C38.6749 24.2032 38.3929 25.1335 38.3929 26.1491C38.3929 27.2636 38.6923 28.2658 39.2912 29.1556C39.89 30.0455 40.5757 30.6117 41.3481 30.8544ZM36.4531 15.0399C36.4531 15.5882 36.3272 16.1993 36.0755 16.8734C35.8151 17.5476 35.4115 18.1677 34.8648 18.734C34.3961 19.2193 33.9274 19.5429 33.4587 19.7047C33.1376 19.8036 32.6863 19.88 32.1048 19.9339C32.1308 18.5947 32.4693 17.4397 33.1202 16.469C33.7625 15.5073 34.8474 14.8421 36.3749 14.4736C36.3836 14.5006 36.3945 14.55 36.4075 14.6219C36.4205 14.6938 36.4314 14.7433 36.44 14.7702C36.44 14.8062 36.4422 14.8511 36.4465 14.9051C36.4509 14.959 36.4531 15.0039 36.4531 15.0399Z" fill="white"/>
</svg>
