<svg width="177" height="55" viewBox="0 0 177 55" fill="none" xmlns="http://www.w3.org/2000/svg">
<rect width="177" height="55" rx="27.5" fill="#212121"/>
<path fill-rule="evenodd" clip-rule="evenodd" d="M65.3112 21.6333L65.2402 21.4319C65.1928 21.2976 65.1385 21.1429 65.0772 20.9678C65.0159 20.7927 64.9615 20.638 64.9142 20.5037L64.8432 20.3023H62.9906L62.5226 21.6333H61.9126L63.6296 16.983H64.2041L65.9212 21.6333H65.3112ZM63.8911 17.7339L63.8168 17.9433C63.7673 18.083 63.7066 18.2559 63.6345 18.4622L63.4182 19.0809C63.3462 19.2872 63.2854 19.4601 63.2359 19.5998L63.1616 19.8093H64.6721L63.9427 17.7339H63.8911ZM66.7598 21.6333V18.1593H67.2891V18.7071H67.3407C67.4289 18.5159 67.5586 18.3666 67.7296 18.2592C67.9007 18.1517 68.1196 18.098 68.3864 18.098C68.778 18.098 69.0787 18.2092 69.2885 18.4316C69.4983 18.6539 69.6032 18.9714 69.6032 19.3839V21.6333H69.0481V19.5192C69.0481 19.2055 68.9808 18.9735 68.8464 18.8231C68.7119 18.6727 68.5059 18.5975 68.2283 18.5975C67.9507 18.5975 67.7291 18.6845 67.5634 18.8586C67.3977 19.0326 67.3149 19.2721 67.3149 19.5772V21.6333H66.7598ZM71.9975 21.6945C71.5521 21.6945 71.197 21.5312 70.9324 21.2047C70.6677 20.8781 70.5354 20.442 70.5354 19.8963C70.5354 19.3506 70.6688 18.9144 70.9356 18.5879C71.2024 18.2613 71.5564 18.098 71.9975 18.098C72.2406 18.098 72.4585 18.1517 72.651 18.2592C72.8436 18.3666 72.9894 18.5159 73.0884 18.7071H73.1368V16.78H73.6919V21.6333H73.1626V21.079H73.111C73.0012 21.2723 72.8484 21.4233 72.6526 21.5318C72.4568 21.6403 72.2384 21.6945 71.9975 21.6945ZM72.1266 18.5975C71.8103 18.5975 71.5617 18.713 71.381 18.944C71.2003 19.1749 71.1099 19.4924 71.1099 19.8963C71.1099 20.3023 71.1997 20.6203 71.3794 20.8502C71.5591 21.0801 71.8081 21.195 72.1266 21.195C72.4429 21.195 72.6924 21.079 72.8753 20.8469C73.0582 20.6149 73.1497 20.298 73.1497 19.8963C73.1497 19.4988 73.0577 19.183 72.8737 18.9488C72.6898 18.7146 72.4407 18.5975 72.1266 18.5975ZM74.8629 21.6333V18.1593H75.3922V18.6749H75.4439C75.4955 18.5052 75.6117 18.3666 75.7925 18.2592C75.9732 18.1517 76.1787 18.098 76.4089 18.098C76.4541 18.098 76.503 18.0996 76.5558 18.1029C76.6085 18.1061 76.652 18.1098 76.6865 18.1141V18.6684C76.665 18.662 76.6144 18.655 76.5348 18.6475C76.4552 18.64 76.3874 18.6362 76.3314 18.6362C76.0668 18.6362 75.8484 18.7157 75.6763 18.8747C75.5041 19.0337 75.4181 19.2356 75.4181 19.4805V21.6333H74.8629ZM78.8064 21.6945C78.3115 21.6945 77.9204 21.5339 77.6332 21.2127C77.3459 20.8915 77.2023 20.4527 77.2023 19.8963C77.2023 19.3377 77.3459 18.8983 77.6332 18.5782C77.9204 18.2581 78.3115 18.098 78.8064 18.098C79.3013 18.098 79.6923 18.2581 79.9796 18.5782C80.2668 18.8983 80.4105 19.3377 80.4105 19.8963C80.4105 20.4527 80.2668 20.8915 79.9796 21.2127C79.6923 21.5339 79.3013 21.6945 78.8064 21.6945ZM78.8064 21.195C79.1356 21.195 79.3895 21.0811 79.5681 20.8534C79.7467 20.6257 79.836 20.3066 79.836 19.8963C79.836 19.4838 79.7467 19.1642 79.5681 18.9375C79.3895 18.7109 79.1356 18.5975 78.8064 18.5975C78.4772 18.5975 78.2233 18.7109 78.0447 18.9375C77.8661 19.1642 77.7768 19.4838 77.7768 19.8963C77.7768 20.3066 77.8661 20.6257 78.0447 20.8534C78.2233 21.0811 78.4772 21.195 78.8064 21.195ZM81.3878 21.6333V18.1593H81.943V21.6333H81.3878ZM81.6654 17.4535C81.56 17.4535 81.4691 17.4154 81.3927 17.3391C81.3163 17.2628 81.2781 17.172 81.2781 17.0668C81.2781 16.9594 81.3163 16.868 81.3927 16.7928C81.4691 16.7177 81.56 16.6801 81.6654 16.6801C81.773 16.6801 81.8644 16.7177 81.9397 16.7928C82.015 16.868 82.0527 16.9594 82.0527 17.0668C82.0527 17.172 82.015 17.2628 81.9397 17.3391C81.8644 17.4154 81.773 17.4535 81.6654 17.4535ZM84.3824 21.6945C83.937 21.6945 83.582 21.5312 83.3173 21.2047C83.0527 20.8781 82.9203 20.442 82.9203 19.8963C82.9203 19.3506 83.0537 18.9144 83.3206 18.5879C83.5874 18.2613 83.9413 18.098 84.3824 18.098C84.6255 18.098 84.8434 18.1517 85.036 18.2592C85.2286 18.3666 85.3743 18.5159 85.4733 18.7071H85.5217V16.78H86.0769V21.6333H85.5475V21.079H85.4959C85.3862 21.2723 85.2334 21.4233 85.0376 21.5318C84.8418 21.6403 84.6234 21.6945 84.3824 21.6945ZM84.5115 18.5975C84.1952 18.5975 83.9467 18.713 83.7659 18.944C83.5852 19.1749 83.4948 19.4924 83.4948 19.8963C83.4948 20.3023 83.5847 20.6203 83.7643 20.8502C83.944 21.0801 84.1931 21.195 84.5115 21.195C84.8278 21.195 85.0774 21.079 85.2603 20.8469C85.4432 20.6149 85.5346 20.298 85.5346 19.8963C85.5346 19.4988 85.4426 19.183 85.2587 18.9488C85.0747 18.7146 84.8256 18.5975 84.5115 18.5975ZM92.3048 21.6333L92.2338 21.4319C92.1865 21.2976 92.1322 21.1429 92.0708 20.9678C92.0095 20.7927 91.9552 20.638 91.9078 20.5037L91.8368 20.3023H89.9842L89.5162 21.6333H88.9062L90.6233 16.983H91.1978L92.9148 21.6333H92.3048ZM90.8847 17.7339L90.8105 17.9433C90.761 18.083 90.7002 18.2559 90.6281 18.4622L90.4119 19.0809C90.3398 19.2872 90.279 19.4601 90.2295 19.5998L90.1553 19.8093H91.6658L90.9364 17.7339H90.8847ZM95.4479 18.098C95.8911 18.098 96.2456 18.2613 96.5113 18.5879C96.7771 18.9144 96.9099 19.3506 96.9099 19.8963C96.9099 20.4398 96.7771 20.8754 96.5113 21.2031C96.2456 21.5307 95.8911 21.6945 95.4479 21.6945C95.2004 21.6945 94.9809 21.6429 94.7894 21.5398C94.5979 21.4367 94.4549 21.2938 94.3602 21.1112H94.3085V22.7934H93.7534V18.1593H94.2827V18.7393H94.3344C94.4463 18.5395 94.6006 18.3827 94.7975 18.2688C94.9944 18.155 95.2112 18.098 95.4479 18.098ZM95.3155 21.195C95.6361 21.195 95.8863 21.0801 96.0659 20.8502C96.2456 20.6203 96.3354 20.3023 96.3354 19.8963C96.3354 19.4902 96.2456 19.1722 96.0659 18.9424C95.8863 18.7125 95.6372 18.5975 95.3188 18.5975C95.0046 18.5975 94.755 18.7141 94.57 18.9472C94.3849 19.1803 94.2924 19.4967 94.2924 19.8963C94.2924 20.2937 94.3849 20.6095 94.57 20.8437C94.755 21.0779 95.0035 21.195 95.3155 21.195ZM99.5688 18.098C100.012 18.098 100.367 18.2613 100.632 18.5879C100.898 18.9144 101.031 19.3506 101.031 19.8963C101.031 20.4398 100.898 20.8754 100.632 21.2031C100.367 21.5307 100.012 21.6945 99.5688 21.6945C99.3214 21.6945 99.1019 21.6429 98.9104 21.5398C98.7189 21.4367 98.5758 21.2938 98.4812 21.1112H98.4295V22.7934H97.8744V18.1593H98.4037V18.7393H98.4553C98.5672 18.5395 98.7216 18.3827 98.9185 18.2688C99.1154 18.155 99.3321 18.098 99.5688 18.098ZM99.4365 21.195C99.7571 21.195 100.007 21.0801 100.187 20.8502C100.367 20.6203 100.456 20.3023 100.456 19.8963C100.456 19.4902 100.367 19.1722 100.187 18.9424C100.007 18.7125 99.7582 18.5975 99.4397 18.5975C99.1256 18.5975 98.876 18.7141 98.6909 18.9472C98.5059 19.1803 98.4134 19.4967 98.4134 19.8963C98.4134 20.2937 98.5059 20.6095 98.6909 20.8437C98.876 21.0779 99.1245 21.195 99.4365 21.195ZM105.384 21.6945C104.889 21.6945 104.498 21.5339 104.21 21.2127C103.923 20.8915 103.78 20.4527 103.78 19.8963C103.78 19.3377 103.923 18.8983 104.21 18.5782C104.498 18.2581 104.889 18.098 105.384 18.098C105.879 18.098 106.27 18.2581 106.557 18.5782C106.844 18.8983 106.988 19.3377 106.988 19.8963C106.988 20.4527 106.844 20.8915 106.557 21.2127C106.27 21.5339 105.879 21.6945 105.384 21.6945ZM105.384 21.195C105.713 21.195 105.967 21.0811 106.145 20.8534C106.324 20.6257 106.413 20.3066 106.413 19.8963C106.413 19.4838 106.324 19.1642 106.145 18.9375C105.967 18.7109 105.713 18.5975 105.384 18.5975C105.054 18.5975 104.801 18.7109 104.622 18.9375C104.443 19.1642 104.354 19.4838 104.354 19.8963C104.354 20.3066 104.443 20.6257 104.622 20.8534C104.801 21.0811 105.054 21.195 105.384 21.195ZM107.952 21.6333C107.952 21.6333 107.952 21.5162 107.952 21.282C107.952 21.0478 107.952 20.7583 107.952 20.4135C107.952 20.0687 107.952 19.7239 107.952 19.379C107.952 19.0342 107.952 18.7447 107.952 18.5105C107.952 18.2763 107.952 18.1593 107.952 18.1593H108.482V18.7071H108.533C108.621 18.5159 108.751 18.3666 108.922 18.2592C109.093 18.1517 109.312 18.098 109.579 18.098C109.971 18.098 110.271 18.2092 110.481 18.4316C110.691 18.6539 110.796 18.9714 110.796 19.3839V21.6333H110.241V19.5192C110.241 19.2055 110.173 18.9735 110.039 18.8231C109.904 18.6727 109.698 18.5975 109.421 18.5975C109.143 18.5975 108.922 18.6845 108.756 18.8586C108.59 19.0326 108.507 19.2721 108.507 19.5772V21.6333H107.952Z" fill="white"/>
<path fill-rule="evenodd" clip-rule="evenodd" d="M70.4458 33.9188C70.4458 35.1735 70.0983 36.1543 69.4033 36.8611C68.7083 37.5679 67.739 37.9214 66.4953 37.9214C65.1957 37.9214 64.1597 37.482 63.3872 36.6033C62.6147 35.7246 62.2285 34.5462 62.2285 33.068C62.2285 31.6157 62.6137 30.4598 63.384 29.6005C64.1543 28.7411 65.1914 28.3114 66.4953 28.3114C67.5023 28.3114 68.3597 28.5875 69.0676 29.1396C69.7755 29.6918 70.2155 30.4298 70.3877 31.3536H69.1677C68.974 30.7262 68.6437 30.2407 68.1768 29.8969C67.7099 29.5532 67.1494 29.3813 66.4953 29.3813C65.5356 29.3813 64.7836 29.7068 64.2393 30.3578C63.6949 31.0088 63.4227 31.91 63.4227 33.0616C63.4227 34.2304 63.6981 35.1542 64.2489 35.8331C64.7998 36.512 65.5486 36.8514 66.4953 36.8514C67.3215 36.8514 67.9929 36.6076 68.5093 36.1199C69.0257 35.6322 69.2839 34.9995 69.2839 34.2218V34.0542H66.6567V33.0358H70.4458V33.9188ZM76.5059 28.3114C77.8271 28.3114 78.8728 28.7432 79.6431 29.6069C80.4134 30.4706 80.7985 31.6415 80.7985 33.1196C80.7985 34.5934 80.4134 35.7622 79.6431 36.6259C78.8728 37.4895 77.8271 37.9214 76.5059 37.9214C75.1848 37.9214 74.1391 37.4895 73.3688 36.6259C72.5985 35.7622 72.2133 34.5934 72.2133 33.1196C72.2133 31.6415 72.5985 30.4706 73.3688 29.6069C74.1391 28.7432 75.1848 28.3114 76.5059 28.3114ZM76.5059 29.3813C75.5549 29.3813 74.8007 29.7176 74.2434 30.39C73.6861 31.0625 73.4075 31.9723 73.4075 33.1196C73.4075 34.2626 73.6861 35.1703 74.2434 35.8427C74.8007 36.5152 75.5549 36.8514 76.5059 36.8514C77.457 36.8514 78.2111 36.5152 78.7684 35.8427C79.3257 35.1703 79.6043 34.2626 79.6043 33.1196C79.6043 31.9723 79.3257 31.0625 78.7684 30.39C78.2111 29.7176 77.457 29.3813 76.5059 29.3813ZM86.8199 28.3114C88.1411 28.3114 89.1868 28.7432 89.9571 29.6069C90.7274 30.4706 91.1125 31.6415 91.1125 33.1196C91.1125 34.5934 90.7274 35.7622 89.9571 36.6259C89.1868 37.4895 88.1411 37.9214 86.8199 37.9214C85.4988 37.9214 84.4531 37.4895 83.6828 36.6259C82.9125 35.7622 82.5273 34.5934 82.5273 33.1196C82.5273 31.6415 82.9125 30.4706 83.6828 29.6069C84.4531 28.7432 85.4988 28.3114 86.8199 28.3114ZM86.8199 29.3813C85.8689 29.3813 85.1147 29.7176 84.5574 30.39C84.0002 31.0625 83.7215 31.9723 83.7215 33.1196C83.7215 34.2626 84.0002 35.1703 84.5574 35.8427C85.1147 36.5152 85.8689 36.8514 86.8199 36.8514C87.771 36.8514 88.5251 36.5152 89.0824 35.8427C89.6397 35.1703 89.9184 34.2626 89.9184 33.1196C89.9184 31.9723 89.6397 31.0625 89.0824 30.39C88.5251 29.7176 87.771 29.3813 86.8199 29.3813ZM101.059 33.9188C101.059 35.1735 100.711 36.1543 100.016 36.8611C99.3211 37.5679 98.3518 37.9214 97.1081 37.9214C95.8085 37.9214 94.7725 37.482 94 36.6033C93.2276 35.7246 92.8414 34.5462 92.8414 33.068C92.8414 31.6157 93.2265 30.4598 93.9968 29.6005C94.7671 28.7411 95.8042 28.3114 97.1081 28.3114C98.1151 28.3114 98.9726 28.5875 99.6805 29.1396C100.388 29.6918 100.828 30.4298 101.001 31.3536H99.7805C99.5869 30.7262 99.2566 30.2407 98.7897 29.8969C98.3228 29.5532 97.7622 29.3813 97.1081 29.3813C96.1485 29.3813 95.3965 29.7068 94.8521 30.3578C94.3077 31.0088 94.0355 31.91 94.0355 33.0616C94.0355 34.2304 94.3109 35.1542 94.8618 35.8331C95.4126 36.512 96.1614 36.8514 97.1081 36.8514C97.9344 36.8514 98.6057 36.6076 99.1221 36.1199C99.6385 35.6322 99.8967 34.9995 99.8967 34.2218V34.0542H97.2695V33.0358H101.059V33.9188ZM108.842 36.7225V37.7667H103.188V28.4661H104.35V36.7225H108.842ZM116.536 36.7225V37.7667H110.765V28.4661H116.536V29.5102H111.927V32.4944H116.297V33.5257H111.927V36.7225H116.536ZM122.065 28.4661H125.39C126.263 28.4661 126.979 28.7432 127.536 29.2975C128.093 29.8518 128.372 30.5694 128.372 31.4503C128.372 32.3311 128.091 33.0509 127.529 33.6094C126.968 34.168 126.25 34.4473 125.377 34.4473H123.227V37.7667H122.065V28.4661ZM123.227 29.4973V33.4161H125.086C125.753 33.4161 126.269 33.2431 126.632 32.8972C126.996 32.5513 127.178 32.069 127.178 31.4503C127.178 30.8358 126.996 30.3567 126.632 30.013C126.269 29.6692 125.753 29.4973 125.086 29.4973H123.227ZM136.001 36.7225V37.7667H130.346V28.4661H131.508V36.7225H136.001ZM143.978 37.7667L143.836 37.3638C143.741 37.0953 143.632 36.7859 143.51 36.4357C143.387 36.0855 143.279 35.7761 143.184 35.5076L143.042 35.1048H139.337L138.401 37.7667H137.181L140.615 28.4661H141.764L145.198 37.7667H143.978ZM141.17 29.8776L141.018 30.3062C140.917 30.592 140.793 30.9454 140.647 31.3665C140.501 31.7876 140.353 32.2087 140.205 32.6298C140.056 33.0509 139.932 33.4043 139.83 33.69L139.679 34.1186H142.7L141.209 29.8776H141.17ZM149.47 37.7667C149.47 37.7667 149.412 37.7667 149.296 37.7667C149.179 37.7667 149.044 37.7667 148.889 37.7667C148.734 37.7667 148.598 37.7667 148.482 37.7667C148.366 37.7667 148.308 37.7667 148.308 37.7667V33.7641L145.003 28.4661H146.326L148.87 32.6427H148.908L151.452 28.4661H152.775L149.47 33.7641V37.7667Z" fill="white"/>
<ellipse opacity="0.701318" cx="32.6433" cy="27.5" rx="21.0369" ry="20.9868" stroke="white"/>
<path fill-rule="evenodd" clip-rule="evenodd" d="M39.5389 24.3322L26.2064 17.09C25.8284 16.8857 25.4797 16.8381 25.1973 16.9252L36.1178 27.7126L39.5389 24.3322Z" fill="url(#paint0_linear)"/>
<path fill-rule="evenodd" clip-rule="evenodd" d="M39.5562 31.1096L44.1077 28.6373C45.0306 28.1341 45.0306 27.3156 44.1077 26.8137L39.5394 24.3322L36.1177 27.7125L39.5562 31.1096Z" fill="url(#paint1_linear)"/>
<path fill-rule="evenodd" clip-rule="evenodd" d="M25.1968 16.925C24.7912 17.0504 24.5288 17.4559 24.5288 18.0695L24.5313 37.3814C24.5313 37.9882 24.7856 38.3876 25.1793 38.5209L36.118 27.7143L25.1968 16.925Z" fill="url(#paint2_linear)"/>
<path fill-rule="evenodd" clip-rule="evenodd" d="M25.1792 38.5209C25.4635 38.616 25.819 38.5716 26.2065 38.3617L39.5546 31.1095L36.1179 27.7144L25.1792 38.5209Z" fill="url(#paint3_linear)"/>
<mask id="mask0" mask-type="alpha" maskUnits="userSpaceOnUse" x="25" y="27" width="15" height="12">
<path fill-rule="evenodd" clip-rule="evenodd" d="M25.1792 38.5209C25.4635 38.616 25.819 38.5716 26.2065 38.3617L39.5546 31.1095L36.1179 27.7144L25.1792 38.5209Z" fill="white"/>
</mask>
<g mask="url(#mask0)">
</g>
<defs>
<linearGradient id="paint0_linear" x1="18.7246" y1="15.7885" x2="23.0655" y2="30.56" gradientUnits="userSpaceOnUse">
<stop stop-color="#19A3B4"/>
<stop offset="0.348168" stop-color="#5BC3AF"/>
<stop offset="0.922336" stop-color="#C8F7A6"/>
<stop offset="1" stop-color="#D7FEA5"/>
</linearGradient>
<linearGradient id="paint1_linear" x1="24.9231" y1="19.6184" x2="29.9203" y2="35.9529" gradientUnits="userSpaceOnUse">
<stop stop-color="#FC227C"/>
<stop offset="1" stop-color="#FEEB7B"/>
</linearGradient>
<linearGradient id="paint2_linear" x1="22.1295" y1="15.8895" x2="29.4613" y2="35.076" gradientUnits="userSpaceOnUse">
<stop stop-color="#0E4DA0"/>
<stop offset="1" stop-color="#6BFED4"/>
</linearGradient>
<linearGradient id="paint3_linear" x1="36.2946" y1="22.6479" x2="22.5911" y2="38.4341" gradientUnits="userSpaceOnUse">
<stop stop-color="#FC472E"/>
<stop offset="0.00331892" stop-color="#FC472F"/>
<stop offset="1" stop-color="#893CD8"/>
</linearGradient>
</defs>
</svg>
