<svg width="16" height="27" viewBox="0 0 16 27" fill="none" xmlns="http://www.w3.org/2000/svg">
<path fill-rule="evenodd" clip-rule="evenodd" d="M7.24972 1.05834L0.559785 7.74779C0.146738 8.16132 0.146738 8.82407 0.559785 9.23721C0.973222 9.65065 1.63607 9.65065 2.04921 9.23721L6.94593 4.34079L6.94593 25.6966C6.94593 26.2814 7.41346 26.7492 7.99823 26.7492C8.58301 26.7492 9.05083 26.2814 9.05083 25.6966L9.05083 4.34079L13.9476 9.23721C14.3607 9.65065 15.0235 9.65065 15.4366 9.23721C15.6395 9.03469 15.7484 8.76169 15.7484 8.4963C15.7484 8.2313 15.6471 7.9584 15.4366 7.75578L8.74665 1.06594C8.326 0.644903 7.65516 0.644903 7.24972 1.05834Z" fill="white" stroke="#41D481" stroke-width="0.5"/>
</svg>
