<svg width="15" height="15" viewBox="0 0 15 15" fill="none" xmlns="http://www.w3.org/2000/svg">
<g opacity="0.538951">
<path fill-rule="evenodd" clip-rule="evenodd" d="M13.7301 13.8687L10.0009 9.98991C10.9521 9.03526 11.5416 7.72047 11.5416 6.27078C11.5416 3.36387 9.17612 1 6.27078 1C3.36387 1 1 3.36387 1 6.27078C1 9.17643 3.36387 11.5416 6.27078 11.5416C7.54636 11.5416 8.71684 11.0845 9.62976 10.3284L13.3674 14.2166C13.4163 14.2681 13.4825 14.2925 13.5487 14.2925C13.6112 14.2925 13.6736 14.2693 13.7228 14.2229C13.822 14.1272 13.8257 13.9679 13.7301 13.8687ZM6.27078 11.039C3.64088 11.039 1.50258 8.89942 1.50258 6.27078C1.50258 3.64088 3.64088 1.50258 6.27078 1.50258C8.89942 1.50258 11.039 3.64088 11.039 6.27078C11.039 8.89942 8.89942 11.039 6.27078 11.039Z" fill="#787993"/>
<path d="M13.7301 13.8687L13.3696 14.2152L13.3703 14.216L13.7301 13.8687ZM10.0009 9.98991L9.64669 9.63699L9.30128 9.98366L9.64045 10.3364L10.0009 9.98991ZM9.62976 10.3284L9.99022 9.9819L9.66844 9.64716L9.31084 9.94332L9.62976 10.3284ZM13.3674 14.2166L13.7297 13.872L13.7279 13.8701L13.3674 14.2166ZM13.7228 14.2229L14.0658 14.5868L14.0701 14.5827L13.7228 14.2229ZM14.0905 13.5222L10.3613 9.64337L9.64045 10.3364L13.3696 14.2152L14.0905 13.5222ZM10.3551 10.3428C11.3953 9.29885 12.0416 7.85884 12.0416 6.27078H11.0416C11.0416 7.5821 10.5089 8.77167 9.64669 9.63699L10.3551 10.3428ZM12.0416 6.27078C12.0416 3.08763 9.45217 0.5 6.27078 0.5V1.5C8.90008 1.5 11.0416 3.64011 11.0416 6.27078H12.0416ZM6.27078 0.5C3.08772 0.5 0.5 3.08772 0.5 6.27078H1.5C1.5 3.64001 3.64001 1.5 6.27078 1.5V0.5ZM0.5 6.27078C0.5 9.4525 3.08765 12.0416 6.27078 12.0416V11.0416C3.64009 11.0416 1.5 8.90037 1.5 6.27078H0.5ZM6.27078 12.0416C7.66801 12.0416 8.95017 11.5404 9.94868 10.7135L9.31084 9.94332C8.4835 10.6285 7.4247 11.0416 6.27078 11.0416V12.0416ZM9.26929 10.6749L13.0069 14.5631L13.7279 13.8701L9.99022 9.9819L9.26929 10.6749ZM13.0051 14.5612C13.1582 14.7221 13.3603 14.7925 13.5487 14.7925V13.7925C13.6047 13.7925 13.6745 13.814 13.7297 13.872L13.0051 14.5612ZM13.5487 14.7925C13.7359 14.7925 13.9218 14.7225 14.0658 14.5867L13.3799 13.8591C13.4254 13.8162 13.4864 13.7925 13.5487 13.7925V14.7925ZM14.0701 14.5827C14.3654 14.2976 14.3797 13.8218 14.0898 13.5215L13.3703 14.216C13.2718 14.1139 13.2785 13.9568 13.3756 13.8631L14.0701 14.5827ZM6.27078 10.539C3.91711 10.539 2.00258 8.62336 2.00258 6.27078H1.00258C1.00258 9.17548 3.36465 11.539 6.27078 11.539V10.539ZM2.00258 6.27078C2.00258 3.91702 3.91702 2.00258 6.27078 2.00258V1.00258C3.36474 1.00258 1.00258 3.36474 1.00258 6.27078H2.00258ZM6.27078 2.00258C8.62336 2.00258 10.539 3.91711 10.539 6.27078H11.539C11.539 3.36465 9.17548 1.00258 6.27078 1.00258V2.00258ZM10.539 6.27078C10.539 8.62328 8.62328 10.539 6.27078 10.539V11.539C9.17556 11.539 11.539 9.17556 11.539 6.27078H10.539Z" fill="#787993"/>
</g>
</svg>
